{"title":"Waking Madison 2010 PPVRip XViD DTRG","uid":6494983,"size":772120759,"categoryP":"video","categoryS":"movies","magnet":"?xt=urn:btih:cc96af672b2f1ac1e5188b28e3ca7e3827b62260&amp;dn=Waking+Madison+2010+PPVRip+XViD+DTRG&amp;tr=udp%3A%2F%2Ftracker.openbittorrent.com%3A80&amp;tr=udp%3A%2F%2Fopen.demonii.com%3A1337&amp;tr=udp%3A%2F%2Ftracker.coppersurfer.tk%3A6969&amp;tr=udp%3A%2F%2Fexodus.desync.com%3A6969","seeders":0,"leechers":1,"uploader":"SAFCukO09","files":3,"time":1309027457,"description":"Format : AVI\nFormat/Info : Audio Video Interleave\nFile size : 736 MiB\nDuration : 1h 26mn\nOverall bit rate : 1 190 Kbps\nWriting library : VirtualDub build 32842/release\n\nVideo\nID : 0\nFormat : MPEG-4 Visual\nFormat profile : Advanced Simple@L5\nFormat settings, BVOP : 2\nFormat settings, QPel : No\nFormat settings, GMC : No warppoints\nFormat settings, Matrix : Default (H.263)\nMuxing mode : Packed bitstream\nCodec ID : XVID\nCodec ID/Hint : XviD\nDuration : 1h 26mn\nBit rate : 1 048 Kbps\nWidth : 584 pixels\nHeight : 400 pixels\nFrame rate : 29.970 fps\nColor space : YUV\nChroma subsampling : 4:2:0\nBit depth : 8 bits\nScan type : Progressive\nCompression mode : Lossy\nBits/(Pixel*Frame) : 0.150\nStream size : 649 MiB (88%)\nWriting library : XviD 64\n\nAudio\nID : 1\nFormat : MPEG Audio\nFormat version : Version 1\nFormat profile : Layer 3\nMode : Joint stereo\nMode extension : MS Stereo\nCodec ID : 55\nCodec ID/Hint : MP3\nDuration : 1h 26mn\nBit rate mode : Constant\nBit rate : 128 Kbps\nChannel(s) : 2 channels\nSampling rate : 44.1 KHz\nCompression mode : Lossy\nStream size : 79.2 MiB (11%)\nAlignment : Aligned on interleaves\nInterleave, duration : 26 ms (0.78 video frame)\nInterleave, preload duration : 522 ms\nWriting library : LAME3.98.2\n\n\n\n\n &lt;a href=&quot;\nhttp://www.imdb.com/title/tt0831280/&quot; rel=&quot;nofollow&quot; target=&quot;_NEW&quot;&gt;\nhttp://www.imdb.com/title/tt0831280/&lt;/a&gt;\n\n\n\n\n\n\n\nMadison (Sarah Roemer), a phone sex operator living in New Orleans, is doing everything she can to lead a normal life. When a series of events leaves Madison suicidal and desperate, she locks herself away in her apartment for 30 days. Using a video camera to document herself like a visual journal, Madison vows that if she does not have the answer to her questions and feel more at peace with her life, she will kill herself on the 30th day. Will she be able to piece her life together? Are the people in her life real at all or are they merely figments of her disordered and fragmented mind?\n\n\n\n\n\n\n\n\n &lt;a href=&quot;\nhttp://www.leetleech.org/images/78049292716471559210.png&quot; rel=&quot;nofollow&quot; target=&quot;_NEW&quot;&gt;\nhttp://www.leetleech.org/images/78049292716471559210.png&lt;/a&gt;\n\n\n\n\n\n\nSource Used\n\nIFLiX ............Thanks\n\n\nCropped,resized slightly missed a touch of the black border at top never mind lol ......RGB colour change slight smoother slight contrast\n\nEnjoy\n\nRetail be soon btw\n\n\nKept the file size down too dont believe these PPVs need be double in size\n\nGreetz to IMAGiNE,Flawl3ss,DiLLoN,BDK,NOiR,TOXiC,THC,Ez,Rx,Boobyblue,TaRiQ786,LKRG,\n","torrent":{"xt":"urn:btih:cc96af672b2f1ac1e5188b28e3ca7e3827b62260","amp;dn":"Waking+Madison+2010+PPVRip+XViD+DTRG","amp;tr":["udp%3A%2F%2Ftracker.openbittorrent.com%3A80","udp%3A%2F%2Fopen.demonii.com%3A1337","udp%3A%2F%2Ftracker.coppersurfer.tk%3A6969","udp%3A%2F%2Fexodus.desync.com%3A6969"],"infoHash":"cc96af672b2f1ac1e5188b28e3ca7e3827b62260","infoHashBuffer":{"type":"Buffer","data":[204,150,175,103,43,47,26,193,229,24,139,40,227,202,126,56,39,182,34,96]},"announce":[],"urlList":[]}}